<?xml version="1.0" standalone="no"?>
<!DOCTYPE svg PUBLIC "-//W3C//DTD SVG 20010904//EN"
 "http://www.w3.org/TR/2001/REC-SVG-20010904/DTD/svg10.dtd">
<svg version="1.0" xmlns="http://www.w3.org/2000/svg"
 width="500.000000pt" height="500.000000pt" viewBox="0 0 500.000000 500.000000"
 preserveAspectRatio="xMidYMid meet">
<metadata>
Created by potrace 1.11, written by Peter Selinger 2001-2013
</metadata>
<g transform="translate(0.000000,500.000000) scale(0.100000,-0.100000)"
fill="#000000" stroke="none">
<path d="M2921 4233 c-5 -10 -8 -34 -6 -53 4 -42 22 -565 30 -880 6 -216 8
-287 20 -595 3 -77 8 -261 11 -410 10 -449 12 -495 19 -630 12 -227 15 -455 7
-455 -4 0 -13 5 -20 12 -9 9 -12 9 -12 -1 0 -7 9 -15 20 -18 20 -5 29 -33 10
-33 -5 0 -10 -10 -9 -22 0 -22 1 -22 9 -3 6 15 9 8 9 -27 l1 -47 -47 21 c-60
26 -79 42 -40 35 20 -3 25 -1 18 6 -7 7 -5 14 7 23 16 13 16 13 -1 14 -10 0
-20 6 -23 14 -6 17 -46 28 -68 20 -9 -3 -13 -11 -9 -17 4 -6 1 -7 -6 -3 -7 5
-10 14 -7 22 4 9 -4 18 -20 24 -37 14 -39 13 -38 -22 1 -24 7 -34 25 -41 64
-24 71 -28 66 -33 -3 -3 -29 2 -58 10 -35 11 -56 13 -63 6 -7 -7 -6 -10 2 -10
7 0 12 -6 12 -14 0 -8 18 -21 40 -30 47 -19 53 -28 10 -16 -18 5 -32 5 -35 -1
-4 -5 3 -9 14 -9 11 0 22 -4 26 -9 3 -6 -10 -8 -32 -5 -29 4 -34 3 -22 -5 12
-8 15 -21 12 -48 -4 -35 -23 -73 -23 -45 0 7 -5 12 -10 12 -7 0 -7 -6 0 -20 6
-11 16 -19 23 -17 11 2 13 -18 7 -63 -1 -11 -3 -11 -7 -2 -7 17 -23 15 -23 -3
0 -8 7 -15 16 -15 8 0 22 -6 29 -14 12 -12 12 -15 0 -20 -8 -3 -15 -1 -15 3 0
5 -6 11 -14 14 -11 5 -14 -11 -12 -83 0 -48 3 -87 6 -85 3 2 6 -103 8 -234 2
-130 -1 -231 -5 -225 -4 6 -19 15 -31 19 -21 6 -23 4 -17 -14 6 -19 3 -21 -39
-21 -25 0 -48 5 -51 10 -4 7 -12 7 -24 0 -10 -5 -21 -7 -24 -4 -3 3 -20 3 -39
-1 l-33 -8 58 -18 c61 -19 149 -31 142 -18 -4 6 56 20 62 14 5 -3 11 -67 12
-117 l1 -48 315 0 315 0 0 65 0 65 -40 0 c-36 0 -39 2 -45 33 -6 34 -19 266
-30 532 -3 88 -8 178 -9 200 -2 22 -6 121 -11 219 -6 146 -10 177 -20 163 -16
-22 -31 -22 -39 -1 -9 22 3 32 14 14 8 -13 10 -12 10 3 0 10 5 15 10 12 13 -8
13 8 -1 22 -8 8 -8 13 0 17 6 4 11 12 11 17 0 6 -3 8 -7 6 -5 -3 -7 32 -5 76
3 98 -7 197 -18 177 -12 -23 -19 -100 -9 -100 5 0 9 -10 9 -23 0 -14 -6 -24
-15 -24 -8 0 -13 3 -10 5 3 3 0 11 -6 18 -7 9 -7 19 -1 30 7 13 6 22 -4 32
-15 15 -10 82 8 93 5 3 10 19 11 35 1 16 7 32 12 36 6 4 -5 6 -23 4 -31 -3
-33 -1 -30 23 3 25 38 45 38 22 0 -6 -8 -11 -17 -11 -12 0 -14 -3 -7 -10 6 -6
18 -8 27 -4 19 7 23 39 6 50 -8 5 -10 31 -5 85 3 43 2 80 -3 83 -10 7 -23 -65
-16 -91 3 -10 -1 -4 -9 12 -8 17 -12 33 -10 37 3 4 0 16 -6 27 -14 27 -3 53
18 42 10 -4 22 -6 29 -4 6 2 13 -4 16 -14 3 -10 5 -1 6 20 0 20 -4 37 -10 37
-5 0 -8 3 -6 8 3 4 -1 13 -9 20 -11 10 -15 8 -20 -13 -3 -14 -10 -25 -15 -25
-13 0 -11 34 4 49 10 11 10 13 0 7 -8 -5 -13 -1 -13 9 0 11 5 15 15 11 12 -4
15 3 15 29 0 26 -4 35 -16 35 -10 0 -14 6 -11 14 3 8 2 27 -3 43 -4 15 -9 20
-9 11 -1 -9 -6 -20 -13 -24 -8 -5 -9 -2 -5 9 3 9 2 19 -3 22 -14 8 -13 45 1
45 6 0 24 -14 40 -31 19 -20 29 -26 29 -16 0 8 -7 17 -15 21 -8 3 -15 10 -15
16 0 6 5 8 12 4 7 -4 8 -3 4 5 -4 6 -12 9 -17 6 -5 -4 -9 -1 -9 4 0 6 5 11 12
11 6 0 8 3 5 6 -10 11 12 44 31 45 10 0 12 3 5 6 -7 2 -13 9 -13 14 0 6 5 7
10 4 6 -3 10 1 10 9 0 9 -4 16 -10 16 -5 0 -10 12 -10 26 0 17 4 23 13 18 9
-6 9 -4 -1 8 -9 12 -10 18 -2 23 8 5 7 11 -1 22 -10 12 -10 16 2 24 9 6 -12 9
-61 9 -81 0 -117 12 -90 30 9 6 11 10 3 10 -7 0 -17 -9 -23 -20 -12 -22 -49
-27 -51 -7 -5 47 -3 114 4 110 4 -2 13 2 21 10 16 15 5 44 -13 33 -7 -5 -11 2
-12 16 -3 58 0 270 4 274 2 3 51 6 108 7 l104 2 3 51 c2 27 -3 63 -9 80 -7 16
-11 35 -10 43 1 7 -2 11 -7 7 -5 -3 -19 27 -31 67 -12 40 -27 80 -32 90 -6 11
-6 17 2 17 6 0 3 7 -5 16 -19 18 -21 38 -3 28 8 -5 7 -2 -2 9 -8 10 -11 20 -8
24 4 3 2 14 -4 24 -6 12 -6 19 0 19 6 0 6 11 1 29 -9 34 -6 266 4 299 6 18 11
20 26 12 16 -9 18 -5 18 38 0 26 -5 53 -11 60 -7 9 -5 11 9 5 18 -7 18 -6 1
21 -10 15 -17 37 -17 49 4 40 0 49 -15 43 -20 -7 -19 3 5 42 18 29 18 36 -2
33 -5 0 -8 4 -8 10 0 6 8 8 18 5 14 -5 18 0 20 24 1 17 -2 30 -8 30 -5 0 -10
10 -9 23 0 21 1 21 9 2 7 -17 9 -18 9 -2 1 14 -33 37 -54 37 -2 0 -7 -20 -11
-45 -8 -53 -24 -50 -24 5 0 42 -2 44 -82 55 -39 5 -48 3 -57 -12z m209 -93 c0
-5 -4 -10 -10 -10 -5 0 -10 5 -10 10 0 6 5 10 10 10 6 0 10 -4 10 -10z m-183
-62 c-3 -8 -6 -5 -6 6 -1 11 2 17 5 13 3 -3 4 -12 1 -19z m163 -98 c0 -11 -2
-20 -4 -20 -2 0 -6 9 -9 20 -3 11 -1 20 4 20 5 0 9 -9 9 -20z m-150 -111 c0
-6 -4 -7 -10 -4 -5 3 -10 11 -10 16 0 6 5 7 10 4 6 -3 10 -11 10 -16z m6 -146
c-10 -10 -19 5 -10 18 6 11 8 11 12 0 2 -7 1 -15 -2 -18z m4 -91 c0 -15 -2
-15 -10 -2 -13 20 -13 33 0 25 6 -3 10 -14 10 -23z m100 -45 c0 -30 -4 -46
-10 -42 -5 3 -10 32 -10 63 0 41 3 53 10 42 5 -8 10 -37 10 -63z m-87 -36 c-4
-4 -11 -10 -15 -15 -5 -5 -8 3 -8 19 0 24 2 26 15 15 9 -7 12 -16 8 -19z m4
-87 c-3 -3 -12 -4 -19 -1 -8 3 -5 6 6 6 11 1 17 -2 13 -5z m-30 -56 c-3 -8 -6
-5 -6 6 -1 11 2 17 5 13 3 -3 4 -12 1 -19z m13 -70 c0 -16 -3 -19 -11 -11 -6
6 -8 16 -5 22 11 17 16 13 16 -11z m155 -68 c3 -5 1 -10 -4 -10 -6 0 -11 5
-11 10 0 6 2 10 4 10 3 0 8 -4 11 -10z m65 -215 c0 -35 -4 -45 -16 -45 -13 0
-14 3 -4 15 6 8 9 23 5 34 -6 19 0 41 11 41 2 0 4 -20 4 -45z m-40 -1 c0 -8
-4 -12 -10 -9 -5 3 -10 10 -10 16 0 5 5 9 10 9 6 0 10 -7 10 -16z m-15 -34 c3
-5 1 -10 -4 -10 -6 0 -11 5 -11 10 0 6 2 10 4 10 3 0 8 -4 11 -10z m22 -506
c-3 -3 -12 -4 -19 -1 -8 3 -5 6 6 6 11 1 17 -2 13 -5z m10 -396 c-3 -8 -6 -5
-6 6 -1 11 2 17 5 13 3 -3 4 -12 1 -19z m0 -305 c-3 -10 -5 -2 -5 17 0 19 2
27 5 18 2 -10 2 -26 0 -35z m-58 15 c0 -7 -4 -22 -9 -33 -7 -16 -8 -14 -7 12
1 18 5 33 10 33 4 0 7 -6 6 -12z m28 -30 c-3 -8 -6 -5 -6 6 -1 11 2 17 5 13 3
-3 4 -12 1 -19z m63 -99 c0 -5 -4 -9 -10 -9 -5 0 -10 7 -10 16 0 8 5 12 10 9
6 -3 10 -10 10 -16z m-183 -31 c-3 -8 -6 -5 -6 6 -1 11 2 17 5 13 3 -3 4 -12
1 -19z m130 -185 c-3 -10 -5 -4 -5 12 0 17 2 24 5 18 2 -7 2 -21 0 -30z m75
-78 c-11 -21 -25 -4 -16 20 4 10 10 13 16 7 7 -7 7 -16 0 -27z m-38 -30 c-4
-8 -1 -15 5 -15 6 0 11 5 11 11 0 5 5 7 10 4 11 -7 -12 -35 -28 -35 -12 0 -24
29 -16 41 9 15 24 10 18 -6z m13 -167 c0 -26 -4 -48 -9 -48 -6 0 -8 -13 -6
-30 3 -16 1 -30 -4 -30 -10 0 -11 64 -1 73 3 4 8 20 10 37 2 23 -1 28 -12 24
-10 -4 -13 -2 -10 8 13 33 31 14 32 -34z m43 38 c0 -2 -7 -6 -15 -10 -8 -3
-15 -1 -15 4 0 6 7 10 15 10 8 0 15 -2 15 -4z m10 -47 c0 -11 -4 -17 -10 -14
-5 3 -10 13 -10 21 0 8 5 14 10 14 6 0 10 -9 10 -21z m-1 -106 c1 -18 -3 -33
-8 -33 -15 0 -20 25 -13 71 5 39 7 41 13 19 4 -14 7 -40 8 -57z m-72 -65 c-2
-13 -4 -5 -4 17 -1 22 1 32 4 23 2 -10 2 -28 0 -40z m26 1 c-6 -6 -9 -1 -7 13
3 33 6 36 11 14 3 -10 1 -22 -4 -27z m-187 -4 c1 -16 2 -43 4 -60 4 -48 1 -65
-11 -65 -6 0 -8 7 -5 16 5 14 4 15 -9 4 -22 -18 -44 -5 -41 25 4 31 16 46 16
19 0 -16 2 -17 10 -4 9 13 11 13 21 0 9 -13 10 -13 7 0 -2 8 -19 21 -36 29
-39 18 -42 36 -4 26 26 -6 26 -6 7 9 -12 9 -15 15 -7 16 7 0 10 5 6 11 -4 7 2
9 17 7 19 -2 24 -9 25 -33z m-203 -35 c3 -11 1 -20 -4 -20 -5 0 -9 9 -9 20 0
11 2 20 4 20 2 0 6 -9 9 -20z m437 -41 c0 -10 -5 -19 -11 -19 -6 0 -9 7 -5 15
3 8 1 15 -5 15 -6 0 -7 5 -4 10 9 15 25 2 25 -21z m-267 -100 c47 -13 48 -25
1 -25 -21 0 -31 2 -24 4 8 3 4 9 -11 18 -29 16 -17 17 34 3z m254 -31 c-3 -8
-6 -5 -6 6 -1 11 2 17 5 13 3 -3 4 -12 1 -19z m0 -60 c-3 -7 -5 -2 -5 12 0 14
2 19 5 13 2 -7 2 -19 0 -25z m-241 -9 c3 -5 1 -9 -5 -9 -17 0 -41 12 -41 20 0
10 38 1 46 -11z m238 -51 c2 -18 0 -43 -3 -56 -6 -21 -7 -22 -26 -7 -17 14
-17 16 -2 11 11 -3 17 0 17 10 0 8 -4 12 -10 9 -14 -8 -13 18 2 50 14 31 19
27 22 -17z m-254 17 c2 15 22 -36 26 -63 2 -15 -2 -22 -9 -19 -7 2 -13 14 -15
26 -2 15 -9 21 -18 17 -11 -4 -12 -1 -6 12 5 9 7 24 5 32 -4 13 -3 13 6 0 6
-8 11 -10 11 -5z m15 -115 c3 -5 1 -10 -4 -10 -6 0 -11 5 -11 10 0 6 2 10 4
10 3 0 8 -4 11 -10z m285 -30 c0 -5 -2 -10 -4 -10 -3 0 -8 5 -11 10 -3 6 -1
10 4 10 6 0 11 -4 11 -10z m-103 -22 c-3 -8 -6 -5 -6 6 -1 11 2 17 5 13 3 -3
4 -12 1 -19z m55 -150 c-7 -7 -12 -8 -12 -2 0 14 12 26 19 19 2 -3 -1 -11 -7
-17z m2 -113 c-4 -8 -8 -15 -10 -15 -2 0 -4 7 -4 15 0 8 4 15 10 15 5 0 7 -7
4 -15z"/>
<path d="M2817 4205 c-4 -8 -2 -17 3 -20 6 -4 10 3 10 14 0 25 -6 27 -13 6z"/>
<path d="M2687 4123 c-8 -33 -7 -124 1 -119 8 5 14 136 7 136 -2 0 -6 -8 -8
-17z"/>
<path d="M4354 3066 c4 -10 0 -29 -8 -41 -13 -20 -13 -24 -1 -29 10 -4 13 -20
11 -60 -1 -31 -6 -59 -9 -63 -12 -11 -8 -41 6 -46 6 -2 12 -20 12 -40 0 -38
-11 -50 -17 -19 -2 9 -5 -20 -6 -65 -2 -68 1 -83 13 -83 23 0 18 -47 -7 -64
-19 -14 -20 -16 -5 -22 21 -8 69 4 79 19 5 8 8 6 8 -5 0 -14 8 -18 35 -18 31
0 35 3 35 27 0 24 1 25 18 10 12 -11 22 -13 35 -6 12 7 17 6 17 -2 0 -7 3 -9
6 -6 4 4 1 13 -5 21 -19 23 -4 38 22 25 18 -9 20 -9 10 2 -7 7 -13 33 -13 57
0 24 -4 41 -9 37 -5 -3 -12 -1 -16 5 -3 5 -1 10 5 10 7 0 8 6 0 19 -7 15 -6
23 6 36 11 11 14 23 8 43 -4 15 -7 30 -6 35 1 4 -2 7 -6 7 -5 0 -14 11 -20 25
-7 15 -8 25 -2 25 6 0 9 3 9 8 -4 22 3 34 16 28 20 -7 19 8 -2 25 -11 10 -14
10 -9 2 4 -7 3 -13 -3 -13 -5 0 -13 9 -16 20 -3 11 -11 20 -16 20 -6 0 -7 5
-4 10 3 6 1 10 -6 10 -7 0 -10 3 -6 6 6 7 -16 34 -28 34 -3 0 -3 -9 0 -20 11
-34 -19 -23 -34 13 l-14 32 -6 -30 c-7 -29 -7 -29 -15 -7 -6 19 -17 25 -42 21
-4 0 -11 5 -16 13 -7 9 -8 8 -4 -6z m124 -127 c-3 -8 -7 -3 -11 10 -4 17 -3
21 5 13 5 -5 8 -16 6 -23z m62 22 c0 -5 -7 -12 -16 -15 -14 -5 -15 -4 -4 9 14
17 20 19 20 6z m0 -41 c0 -5 -2 -10 -4 -10 -3 0 -8 5 -11 10 -3 6 -1 10 4 10
6 0 11 -4 11 -10z m10 -340 c0 -5 -5 -10 -11 -10 -5 0 -7 5 -4 10 3 6 8 10 11
10 2 0 4 -4 4 -10z"/>
<path d="M4530 3037 c0 -7 15 -24 33 -37 26 -19 29 -20 17 -4 -29 38 -50 56
-50 41z"/>
<path d="M3440 2990 c0 -5 5 -10 10 -10 6 0 10 5 10 10 0 6 -4 10 -10 10 -5 0
-10 -4 -10 -10z"/>
<path d="M2649 2930 c-1 -14 -3 -36 -4 -50 -9 -88 -5 -278 6 -307 10 -27 28
-31 25 -5 -2 9 1 30 5 46 6 20 5 32 -2 37 -7 4 -10 26 -8 53 2 25 0 48 -6 50
-5 3 -5 5 2 5 9 1 11 24 6 89 -5 82 -21 136 -24 82z"/>
<path d="M3922 2920 c0 -14 2 -19 5 -12 2 6 2 18 0 25 -3 6 -5 1 -5 -13z"/>
<path d="M2720 2863 c0 -13 5 -23 10 -23 13 0 13 11 0 30 -8 12 -10 11 -10 -7z"/>
<path d="M2870 2845 c0 -8 5 -15 10 -15 6 0 10 7 10 15 0 8 -4 15 -10 15 -5 0
-10 -7 -10 -15z"/>
<path d="M3814 2780 c3 -19 10 -36 15 -40 5 -3 11 -19 14 -35 4 -25 5 -24 4 7
-1 20 2 40 6 44 4 4 7 -7 7 -24 0 -17 3 -33 8 -35 4 -3 7 12 7 34 1 31 -3 39
-17 39 -10 0 -18 -6 -18 -12 0 -7 -5 -5 -11 5 -5 9 -8 21 -4 26 3 5 0 13 -6
17 -9 5 -10 -2 -5 -26z"/>
<path d="M3061 2784 c0 -11 3 -14 6 -6 3 7 2 16 -1 19 -3 4 -6 -2 -5 -13z"/>
<path d="M3594 2757 c2 -46 16 -81 16 -39 0 11 2 26 5 34 3 7 -1 22 -8 33 -13
17 -14 14 -13 -28z"/>
<path d="M2222 2765 c0 -16 2 -22 5 -12 2 9 2 23 0 30 -3 6 -5 -1 -5 -18z"/>
<path d="M2312 2765 c0 -16 2 -22 5 -12 2 9 2 23 0 30 -3 6 -5 -1 -5 -18z"/>
<path d="M3721 2721 c-1 -53 1 -62 12 -50 6 7 19 20 27 27 13 12 13 13 -4 10
-14 -2 -19 3 -21 20 -1 13 4 22 12 22 7 0 13 5 13 11 0 6 -6 9 -14 6 -8 -3
-17 -1 -20 6 -2 7 -5 -17 -5 -52z"/>
<path d="M3000 2750 c0 -11 2 -20 4 -20 2 0 6 9 9 20 3 11 1 20 -4 20 -5 0 -9
-9 -9 -20z"/>
<path d="M3780 2744 c0 -14 4 -23 9 -20 5 3 7 15 4 26 -7 28 -13 25 -13 -6z"/>
<path d="M3890 2759 c0 -5 5 -7 10 -4 6 3 10 8 10 11 0 2 -4 4 -10 4 -5 0 -10
-5 -10 -11z"/>
<path d="M3920 2761 c0 -10 19 -25 25 -20 1 2 -3 10 -11 17 -8 7 -14 8 -14 3z"/>
<path d="M3680 2750 c-8 -5 -11 -12 -7 -16 4 -4 13 -2 19 4 15 15 7 24 -12 12z"/>
<path d="M2223 2660 c0 -41 2 -58 4 -37 2 20 2 54 0 75 -2 20 -4 3 -4 -38z"/>
<path d="M3818 2705 c2 -14 6 -25 8 -25 2 0 4 11 4 25 0 14 -4 25 -9 25 -4 0
-6 -11 -3 -25z"/>
<path d="M2311 2704 c0 -11 3 -14 6 -6 3 7 2 16 -1 19 -3 4 -6 -2 -5 -13z"/>
<path d="M2748 2674 c-12 -33 -12 -44 -3 -44 10 0 30 79 22 87 -2 1 -10 -18
-19 -43z"/>
<path d="M3280 2708 c0 -7 4 -19 9 -27 7 -10 9 -7 8 12 -2 26 -17 39 -17 15z"/>
<path d="M2161 2694 c0 -11 3 -14 6 -6 3 7 2 16 -1 19 -3 4 -6 -2 -5 -13z"/>
<path d="M3926 2702 c-2 -4 -1 -14 5 -22 7 -12 9 -10 9 8 0 23 -5 28 -14 14z"/>
<path d="M2371 2684 c0 -11 3 -14 6 -6 3 7 2 16 -1 19 -3 4 -6 -2 -5 -13z"/>
<path d="M2472 2680 c0 -14 2 -19 5 -12 2 6 2 18 0 25 -3 6 -5 1 -5 -13z"/>
<path d="M2876 2669 c-9 -45 -8 -59 5 -59 6 0 9 7 6 15 -4 8 -2 17 3 20 12 8
13 55 1 55 -5 0 -11 -14 -15 -31z"/>
<path d="M3160 2685 c0 -8 7 -15 15 -15 8 0 15 7 15 15 0 8 -7 15 -15 15 -8 0
-15 -7 -15 -15z"/>
<path d="M3646 2691 c-3 -5 2 -11 12 -13 25 -6 53 2 47 13 -8 12 -52 12 -59 0z"/>
<path d="M3600 2675 c0 -8 2 -15 4 -15 2 0 6 7 10 15 3 8 1 15 -4 15 -6 0 -10
-7 -10 -15z"/>
<path d="M2143 2655 c-3 -9 -3 -18 -1 -21 3 -3 8 4 11 16 6 23 -1 27 -10 5z"/>
<path d="M2192 2650 c0 -14 2 -19 5 -12 2 6 2 18 0 25 -3 6 -5 1 -5 -13z"/>
<path d="M2780 2640 c-9 -6 -10 -10 -3 -10 6 0 15 5 18 10 8 12 4 12 -15 0z"/>
<path d="M4031 2614 c0 -11 3 -14 6 -6 3 7 2 16 -1 19 -3 4 -6 -2 -5 -13z"/>
<path d="M2738 2613 c6 -2 18 -2 25 0 6 3 1 5 -13 5 -14 0 -19 -2 -12 -5z"/>
<path d="M3600 2605 c0 -9 6 -12 15 -9 8 4 12 10 9 15 -8 14 -24 10 -24 -6z"/>
<path d="M3724 2603 c3 -8 6 -17 6 -19 0 -2 5 -4 11 -4 5 0 7 5 3 11 -5 8 1
10 20 7 14 -3 29 -1 32 3 3 5 -5 9 -18 10 -13 0 -31 2 -41 4 -13 2 -17 -1 -13
-12z"/>
<path d="M3655 2603 c11 -3 25 -9 31 -14 8 -6 14 -4 18 6 4 12 -2 15 -32 14
-21 -1 -29 -3 -17 -6z"/>
<path d="M3827 2592 c2 -10 15 -19 30 -20 14 -1 33 -8 41 -15 13 -9 14 -9 8 1
-4 7 -2 12 4 12 6 0 9 4 5 10 -3 5 -12 7 -19 4 -7 -3 -19 2 -26 11 -18 22 -49
20 -43 -3z m33 -2 c0 -5 -2 -10 -4 -10 -3 0 -8 5 -11 10 -3 6 -1 10 4 10 6 0
11 -4 11 -10z"/>
<path d="M3938 2593 c7 -3 16 -2 19 1 4 3 -2 6 -13 5 -11 0 -14 -3 -6 -6z"/>
<path d="M3938 2573 c7 -3 16 -2 19 1 4 3 -2 6 -13 5 -11 0 -14 -3 -6 -6z"/>
<path d="M3970 2575 c0 -7 30 -13 34 -7 3 4 -4 9 -15 9 -10 1 -19 0 -19 -2z"/>
<path d="M4028 2573 c7 -3 16 -2 19 1 4 3 -2 6 -13 5 -11 0 -14 -3 -6 -6z"/>
<path d="M2600 2550 c-12 -8 -10 -10 8 -10 13 0 20 4 17 10 -7 12 -6 12 -25 0z"/>
<path d="M2518 2543 c7 -3 16 -2 19 1 4 3 -2 6 -13 5 -11 0 -14 -3 -6 -6z"/>
<path d="M4028 2533 c7 -3 16 -2 19 1 4 3 -2 6 -13 5 -11 0 -14 -3 -6 -6z"/>
<path d="M2810 2449 c0 -5 5 -7 10 -4 6 3 10 8 10 11 0 2 -4 4 -10 4 -5 0 -10
-5 -10 -11z"/>
<path d="M2800 1920 c0 -5 5 -10 11 -10 5 0 7 5 4 10 -3 6 -8 10 -11 10 -2 0
-4 -4 -4 -10z"/>
<path d="M2910 1894 c0 -8 6 -11 15 -8 8 4 15 9 15 13 0 4 -7 8 -15 8 -8 0
-15 -6 -15 -13z"/>
<path d="M2900 1833 c0 -18 5 -33 10 -33 13 0 13 30 0 50 -7 11 -10 7 -10 -17z"/>
<path d="M3233 1760 c0 -25 2 -35 4 -22 2 12 2 32 0 45 -2 12 -4 2 -4 -23z"/>
<path d="M2800 1780 c0 -12 8 -12 35 0 18 8 17 9 -7 9 -16 1 -28 -3 -28 -9z"/>
<path d="M2875 1772 c11 -4 20 -13 20 -21 0 -8 5 -16 11 -18 6 -2 11 6 10 19
-1 18 -7 23 -31 25 -22 1 -25 0 -10 -5z"/>
<path d="M2894 1682 c-9 -5 -8 -11 2 -20 12 -11 14 -9 14 8 0 22 0 23 -16 12z"/>
<path d="M2925 1670 c3 -5 11 -10 16 -10 6 0 7 5 4 10 -3 6 -11 10 -16 10 -6
0 -7 -4 -4 -10z"/>
<path d="M3190 1629 c0 -5 5 -7 10 -4 6 3 10 8 10 11 0 2 -4 4 -10 4 -5 0 -10
-5 -10 -11z"/>
<path d="M2730 1610 c8 -5 22 -9 30 -9 10 0 8 3 -5 9 -27 12 -43 12 -25 0z"/>
<path d="M2885 1601 c19 -8 19 -8 -5 -16 -24 -8 -24 -8 -5 -16 29 -11 65 -11
65 1 0 6 -6 10 -14 10 -8 0 -16 7 -20 15 -3 8 -13 15 -23 14 -16 0 -15 -1 2
-8z"/>
<path d="M2788 1593 c7 -3 16 -2 19 1 4 3 -2 6 -13 5 -11 0 -14 -3 -6 -6z"/>
<path d="M2840 1491 c0 -14 5 -18 20 -14 16 4 17 7 5 19 -18 19 -25 18 -25 -5z"/>
<path d="M2745 1474 c9 -9 18 -14 21 -11 9 9 -6 27 -22 27 -13 0 -13 -2 1 -16z"/>
<path d="M2790 1459 c0 -7 3 -9 7 -6 3 4 12 2 20 -5 12 -9 33 -4 22 6 -14 12
-49 16 -49 5z"/>
<path d="M2857 1439 c-5 -17 11 -29 36 -29 7 0 6 4 -3 10 -13 8 -12 10 3 10
10 0 21 -8 25 -17 4 -10 13 -19 21 -21 11 -2 12 0 3 11 -10 11 -6 13 19 12 45
-3 20 14 -44 29 -51 12 -56 12 -60 -5z"/>
<path d="M2735 1387 c-11 -26 0 -32 37 -19 25 9 27 10 6 7 -20 -4 -28 0 -31
12 -4 17 -4 17 -12 0z"/>
<path d="M2866 1378 c3 -5 10 -6 15 -3 13 9 11 12 -6 12 -8 0 -12 -4 -9 -9z"/>
<path d="M2810 1356 c0 -9 15 -13 46 -12 34 1 48 -4 55 -16 6 -10 18 -18 27
-18 13 0 14 2 3 9 -11 7 -11 9 0 13 16 5 -39 24 -93 31 -27 4 -38 2 -38 -7z"/>
<path d="M2780 1345 c0 -8 2 -15 4 -15 2 0 6 7 10 15 3 8 1 15 -4 15 -6 0 -10
-7 -10 -15z"/>
<path d="M2870 1330 c8 -5 20 -10 25 -10 6 0 3 5 -5 10 -8 5 -19 10 -25 10 -5
0 -3 -5 5 -10z"/>
<path d="M2780 1300 c0 -4 11 -10 25 -12 14 -3 25 -2 25 2 0 4 -11 10 -25 12
-14 3 -25 2 -25 -2z"/>
<path d="M2870 1299 c0 -5 5 -7 10 -4 6 3 10 8 10 11 0 2 -4 4 -10 4 -5 0 -10
-5 -10 -11z"/>
<path d="M2735 1280 c3 -5 12 -10 19 -10 8 0 27 -7 42 -15 16 -8 36 -15 45
-15 8 0 19 -4 25 -9 13 -13 86 -18 91 -6 1 6 -9 11 -23 11 -31 2 -43 12 -25
23 9 6 6 10 -10 14 -13 4 -26 1 -30 -5 -6 -9 -22 -8 -62 5 -61 19 -81 21 -72
7z"/>
<path d="M2735 1210 c3 -5 14 -10 23 -10 15 0 15 2 2 10 -20 13 -33 13 -25 0z"/>
<path d="M4041 995 c-1 -14 -4 -16 -9 -8 -6 10 -13 9 -30 -3 -34 -23 -28 -44
12 -44 37 0 46 12 35 50 -6 21 -7 21 -8 5z"/>
<path d="M4266 981 c-45 -9 -42 -27 4 -23 22 2 38 8 35 12 -3 5 1 11 7 13 18
7 -10 6 -46 -2z"/>
<path d="M4940 970 c0 -5 9 -10 20 -10 11 0 20 5 20 10 0 6 -9 10 -20 10 -11
0 -20 -4 -20 -10z"/>
<path d="M4066 945 c-3 -9 0 -15 9 -15 8 0 15 7 15 15 0 8 -4 15 -9 15 -5 0
-11 -7 -15 -15z"/>
<path d="M2741 904 c0 -11 3 -14 6 -6 3 7 2 16 -1 19 -3 4 -6 -2 -5 -13z"/>
<path d="M2540 892 c0 -4 14 -9 31 -10 19 -2 28 2 24 8 -7 12 -55 14 -55 2z"/>
<path d="M4778 883 c6 -2 18 -2 25 0 6 3 1 5 -13 5 -14 0 -19 -2 -12 -5z"/>
<path d="M2083 873 c9 -2 25 -2 35 0 9 3 1 5 -18 5 -19 0 -27 -2 -17 -5z"/>
<path d="M1675 830 c-19 -8 -19 -9 3 -9 12 -1 22 4 22 9 0 6 -1 10 -2 9 -2 0
-12 -4 -23 -9z"/>
<path d="M1970 830 c-9 -6 -10 -10 -3 -10 6 0 15 5 18 10 8 12 4 12 -15 0z"/>
<path d="M3920 771 c0 -17 17 -21 42 -12 12 6 19 10 13 11 -5 1 -20 3 -32 6
-13 2 -23 0 -23 -5z"/>
<path d="M1645 700 c4 -6 11 -8 16 -5 14 9 11 15 -7 15 -8 0 -12 -5 -9 -10z"/>
<path d="M1055 690 c-3 -5 -1 -10 4 -10 6 0 11 5 11 10 0 6 -2 10 -4 10 -3 0
-8 -4 -11 -10z"/>
<path d="M1536 688 c3 -4 9 -8 15 -8 5 0 9 4 9 8 0 5 -7 9 -15 9 -8 0 -12 -4
-9 -9z"/>
<path d="M1613 675 c0 -8 4 -12 9 -9 5 3 6 10 3 15 -9 13 -12 11 -12 -6z"/>
<path d="M815 660 c-3 -6 4 -9 19 -8 13 1 22 6 20 10 -7 11 -32 10 -39 -2z"/>
<path d="M875 660 c-3 -6 1 -7 9 -4 18 7 21 14 7 14 -6 0 -13 -4 -16 -10z"/>
<path d="M1578 653 c7 -3 16 -2 19 1 4 3 -2 6 -13 5 -11 0 -14 -3 -6 -6z"/>
<path d="M1238 603 c7 -3 16 -2 19 1 4 3 -2 6 -13 5 -11 0 -14 -3 -6 -6z"/>
<path d="M1659 593 c-11 -15 -11 -16 0 -6 7 6 20 9 27 6 8 -3 14 0 14 6 0 17
-26 13 -41 -6z"/>
<path d="M485 570 c-3 -5 1 -10 10 -10 9 0 13 5 10 10 -3 6 -8 10 -10 10 -2 0
-7 -4 -10 -10z"/>
<path d="M4258 553 c-31 -8 -93 -42 -78 -42 30 -1 161 35 154 42 -8 7 -48 8
-76 0z"/>
<path d="M2440 540 c0 -5 7 -10 16 -10 8 0 12 5 9 10 -3 6 -10 10 -16 10 -5 0
-9 -4 -9 -10z"/>
<path d="M1540 525 c0 -8 4 -15 9 -15 5 0 11 7 15 15 3 9 0 15 -9 15 -8 0 -15
-7 -15 -15z"/>
<path d="M2560 510 c0 -5 5 -10 11 -10 5 0 7 5 4 10 -3 6 -8 10 -11 10 -2 0
-4 -4 -4 -10z"/>
<path d="M4028 496 c-15 -8 -35 -17 -45 -20 -10 -3 6 -4 35 -2 33 2 60 10 70
20 15 15 14 16 -8 16 -14 0 -37 -6 -52 -14z"/>
<path d="M4518 479 c-10 -5 -18 -15 -18 -22 0 -8 3 -9 8 -1 4 6 16 16 27 22
11 6 16 11 10 11 -5 0 -18 -4 -27 -10z"/>
<path d="M3928 473 c7 -3 16 -2 19 1 4 3 -2 6 -13 5 -11 0 -14 -3 -6 -6z"/>
<path d="M640 463 c0 -5 14 -8 30 -9 17 -1 30 3 30 7 0 5 -13 9 -30 9 -16 0
-30 -3 -30 -7z"/>
<path d="M3675 390 c3 -5 8 -10 11 -10 2 0 4 5 4 10 0 6 -5 10 -11 10 -5 0 -7
-4 -4 -10z"/>
<path d="M4628 393 c6 -2 18 -2 25 0 6 3 1 5 -13 5 -14 0 -19 -2 -12 -5z"/>
<path d="M4675 390 c-3 -5 -2 -10 4 -10 5 0 13 5 16 10 3 6 2 10 -4 10 -5 0
-13 -4 -16 -10z"/>
<path d="M4060 380 c-9 -6 -10 -10 -3 -10 6 0 15 5 18 10 8 12 4 12 -15 0z"/>
<path d="M4090 370 c-8 -5 -10 -10 -5 -10 6 0 17 5 25 10 8 5 11 10 5 10 -5 0
-17 -5 -25 -10z"/>
<path d="M3713 358 c-2 -5 -2 -8 1 -8 2 0 12 -3 22 -7 13 -5 15 -3 10 8 -4 8
-1 7 6 -2 8 -10 32 -24 53 -33 l40 -16 -27 21 c-16 11 -28 27 -28 34 0 15 -68
17 -77 3z"/>
<path d="M3526 352 c-3 -4 8 -13 25 -19 33 -13 38 -7 12 13 -21 16 -30 17 -37
6z"/>
<path d="M4340 340 c-9 -6 -10 -10 -3 -10 6 0 15 5 18 10 8 12 4 12 -15 0z"/>
<path d="M250 330 c0 -5 5 -10 10 -10 6 0 10 5 10 10 0 6 -4 10 -10 10 -5 0
-10 -4 -10 -10z"/>
<path d="M0 319 c0 -5 5 -7 10 -4 5 3 10 8 10 11 0 2 -4 4 -10 4 -5 0 -10 -5
-10 -11z"/>
<path d="M405 305 c-22 -7 -31 -13 -20 -14 11 0 34 6 50 14 38 17 22 17 -30 0z"/>
<path d="M2691 303 c7 -12 17 -19 23 -16 5 4 7 -1 3 -10 -3 -10 -2 -17 4 -17
18 0 5 32 -20 48 -23 16 -24 16 -10 -5z"/>
<path d="M4525 280 c-3 -5 -1 -10 4 -10 6 0 11 5 11 10 0 6 -2 10 -4 10 -3 0
-8 -4 -11 -10z"/>
<path d="M233 269 c14 -8 22 -8 30 0 8 8 3 11 -18 11 -26 -1 -28 -2 -12 -11z"/>
<path d="M3700 270 c20 -13 50 -13 50 0 0 6 -15 10 -32 10 -25 0 -29 -3 -18
-10z"/>
<path d="M3770 231 c0 -5 14 -11 30 -13 32 -5 41 6 14 16 -23 9 -44 7 -44 -3z"/>
<path d="M4261 224 c0 -11 3 -14 6 -6 3 7 2 16 -1 19 -3 4 -6 -2 -5 -13z"/>
<path d="M2445 220 c3 -5 11 -10 16 -10 6 0 7 5 4 10 -3 6 -11 10 -16 10 -6 0
-7 -4 -4 -10z"/>
<path d="M1200 191 c0 -6 4 -13 10 -16 6 -3 7 1 4 9 -7 18 -14 21 -14 7z"/>
<path d="M4140 173 c-28 -32 -13 -61 25 -47 17 7 17 9 9 42 -7 26 -14 27 -34
5z"/>
<path d="M4365 170 c-3 -5 -1 -10 4 -10 6 0 11 5 11 10 0 6 -2 10 -4 10 -3 0
-8 -4 -11 -10z"/>
<path d="M4485 170 c-3 -5 -1 -10 4 -10 6 0 11 5 11 10 0 6 -2 10 -4 10 -3 0
-8 -4 -11 -10z"/>
<path d="M4880 160 c0 -5 8 -10 18 -10 9 0 28 -3 42 -6 18 -4 21 -3 10 4 -25
15 -70 23 -70 12z"/>
<path d="M4250 140 c0 -11 5 -20 10 -20 6 0 10 9 10 20 0 11 -4 20 -10 20 -5
0 -10 -9 -10 -20z"/>
<path d="M4726 131 c15 -14 54 -23 54 -13 0 5 -10 12 -22 16 -33 8 -44 8 -32
-3z"/>
<path d="M4320 100 c0 -5 12 -10 28 -9 24 0 25 1 7 9 -27 12 -35 12 -35 0z"/>
<path d="M4255 90 c-3 -5 1 -10 10 -10 9 0 13 5 10 10 -3 6 -8 10 -10 10 -2 0
-7 -4 -10 -10z"/>
<path d="M4110 65 c0 -8 5 -15 10 -15 6 0 10 4 10 9 0 5 10 7 23 4 18 -4 19
-3 7 6 -22 16 -50 13 -50 -4z"/>
<path d="M4050 48 c0 -5 -4 -7 -9 -4 -5 4 -17 3 -26 0 -14 -6 -13 -8 6 -22 19
-13 22 -13 31 2 6 11 16 15 29 11 10 -4 19 -2 19 3 0 5 -11 12 -25 14 -14 3
-25 1 -25 -4z"/>
<path d="M3940 15 c0 -8 9 -15 20 -15 13 0 18 5 14 15 -4 8 -12 15 -20 15 -8
0 -14 -7 -14 -15z"/>
</g>
</svg>
